<svg width="21" height="24" viewBox="0 0 21 24" fill="none" xmlns="http://www.w3.org/2000/svg">
<g clip-path="url(#clip0_12_480)">
<path d="M19.4374 1.71428C19.7499 1.71428 20.0178 1.82588 20.241 2.0491C20.4642 2.27231 20.5758 2.54017 20.5758 2.85267V21.1473C20.5758 21.4598 20.4642 21.7277 20.241 21.9509C20.0178 22.1741 19.7499 22.2857 19.4374 22.2857H14.2008V14.317H16.866L17.2678 11.2098H14.2008V9.22767C14.2008 8.72767 14.3057 8.35267 14.5156 8.10267C14.7254 7.85267 15.1339 7.72767 15.741 7.72767L17.3749 7.71428V4.94196C16.8124 4.8616 16.0178 4.82142 14.991 4.82142C13.7767 4.82142 12.8057 5.17856 12.0781 5.89285C11.3504 6.60713 10.9865 7.61606 10.9865 8.91963V11.2098H8.30797V14.317H10.9865V22.2857H1.14279C0.830287 22.2857 0.56243 22.1741 0.339216 21.9509C0.116002 21.7277 0.00439453 21.4598 0.00439453 21.1473V2.85267C0.00439453 2.54017 0.116002 2.27231 0.339216 2.0491C0.56243 1.82588 0.830287 1.71428 1.14279 1.71428H19.4374Z" fill="#EEF8FF"/>
</g>
<defs>
<clipPath id="clip0_12_480">
<rect width="20.58" height="24" fill="white" transform="matrix(1 0 0 -1 0 24)"/>
</clipPath>
</defs>
</svg>
