<svg width="22" height="24" viewBox="0 0 22 24" fill="none" xmlns="http://www.w3.org/2000/svg">
<g clip-path="url(#clip0_12_483)">
<path d="M13.2943 14.4241C13.2943 14.4241 13.4617 14.2567 13.7965 13.9219C14.1313 13.587 14.2988 12.9464 14.2988 12C14.2988 11.0536 13.9639 10.2455 13.2943 9.57588C12.6247 8.90624 11.8166 8.57142 10.8702 8.57142C9.92376 8.57142 9.11572 8.90624 8.44608 9.57588C7.77644 10.2455 7.44162 11.0536 7.44162 12C7.44162 12.9464 7.77644 13.7545 8.44608 14.4241C9.11572 15.0937 9.92376 15.4286 10.8702 15.4286C11.8166 15.4286 12.6247 15.0937 13.2943 14.4241ZM14.6068 8.26338C14.6068 8.26338 14.8635 8.52008 15.3769 9.03347C15.8903 9.54687 16.147 10.5357 16.147 12C16.147 13.4643 15.6336 14.7098 14.6068 15.7366C13.58 16.7634 12.3345 17.2768 10.8702 17.2768C9.4059 17.2768 8.16037 16.7634 7.13358 15.7366C6.10679 14.7098 5.5934 13.4643 5.5934 12C5.5934 10.5357 6.10679 9.29017 7.13358 8.26338C8.16037 7.2366 9.4059 6.72321 10.8702 6.72321C12.3345 6.72321 13.58 7.2366 14.6068 8.26338ZM17.2318 5.63838C17.2318 5.63838 17.2921 5.69865 17.4126 5.81919C17.5331 5.93972 17.5934 6.16963 17.5934 6.50892C17.5934 6.84821 17.4729 7.13838 17.2318 7.37946C16.9907 7.62053 16.7005 7.74106 16.3613 7.74106C16.022 7.74106 15.7318 7.62053 15.4907 7.37946C15.2497 7.13838 15.1291 6.84821 15.1291 6.50892C15.1291 6.16963 15.2497 5.87946 15.4907 5.63838C15.7318 5.39731 16.022 5.27678 16.3613 5.27678C16.7005 5.27678 16.9907 5.39731 17.2318 5.63838ZM11.8947 3.55579C11.8947 3.55579 11.7396 3.55691 11.4293 3.55914C11.1191 3.56137 10.9327 3.56249 10.8702 3.56249C10.8077 3.56249 10.4662 3.56026 9.84563 3.55579C9.2251 3.55133 8.75412 3.55133 8.43269 3.55579C8.11126 3.56026 7.68045 3.57365 7.14028 3.59597C6.6001 3.61829 6.14028 3.66294 5.76081 3.7299C5.38135 3.79687 5.06215 3.87946 4.80322 3.97767C4.35679 4.15624 3.96394 4.41517 3.62465 4.75446C3.28537 5.09374 3.02644 5.4866 2.84787 5.93303C2.74965 6.19196 2.66706 6.51115 2.6001 6.89062C2.53313 7.27008 2.48849 7.7299 2.46617 8.27008C2.44385 8.81026 2.43045 9.24106 2.42599 9.56249C2.42153 9.88392 2.42153 10.3549 2.42599 10.9754C2.43045 11.596 2.43269 11.9375 2.43269 12C2.43269 12.0625 2.43045 12.404 2.42599 13.0245C2.42153 13.6451 2.42153 14.1161 2.42599 14.4375C2.43045 14.7589 2.44385 15.1897 2.46617 15.7299C2.48849 16.2701 2.53313 16.7299 2.6001 17.1094C2.66706 17.4888 2.74965 17.808 2.84787 18.067C3.02644 18.5134 3.28537 18.9062 3.62465 19.2455C3.96394 19.5848 4.35679 19.8437 4.80322 20.0223C5.06215 20.1205 5.38135 20.2031 5.76081 20.2701C6.14028 20.337 6.6001 20.3817 7.14028 20.404C7.68045 20.4263 8.11126 20.4397 8.43269 20.4442C8.75412 20.4487 9.2251 20.4487 9.84563 20.4442C10.4662 20.4397 10.8077 20.4375 10.8702 20.4375C10.9327 20.4375 11.2742 20.4397 11.8947 20.4442C12.5153 20.4487 12.9863 20.4487 13.3077 20.4442C13.6291 20.4397 14.0599 20.4263 14.6001 20.404C15.1403 20.3817 15.6001 20.337 15.9796 20.2701C16.359 20.2031 16.6782 20.1205 16.9372 20.0223C17.3836 19.8437 17.7764 19.5848 18.1157 19.2455C18.455 18.9062 18.7139 18.5134 18.8925 18.067C18.9907 17.808 19.0733 17.4888 19.1403 17.1094C19.2072 16.7299 19.2519 16.2701 19.2742 15.7299C19.2965 15.1897 19.3099 14.7589 19.3144 14.4375C19.3188 14.1161 19.3188 13.6451 19.3144 13.0245C19.3099 12.404 19.3077 12.0625 19.3077 12C19.3077 11.9375 19.3099 11.596 19.3144 10.9754C19.3188 10.3549 19.3188 9.88392 19.3144 9.56249C19.3099 9.24106 19.2965 8.81026 19.2742 8.27008C19.2519 7.7299 19.2072 7.27008 19.1403 6.89062C19.0733 6.51115 18.9907 6.19196 18.8925 5.93303C18.7139 5.4866 18.455 5.09374 18.1157 4.75446C17.7764 4.41517 17.3836 4.15624 16.9372 3.97767C16.6782 3.87946 16.359 3.79687 15.9796 3.7299C15.6001 3.66294 15.1403 3.61829 14.6001 3.59597C14.0599 3.57365 13.6291 3.56026 13.3077 3.55579C12.9863 3.55133 12.5153 3.55133 11.8947 3.55579ZM21.0889 7.75446C21.1336 8.54017 21.1559 9.95535 21.1559 12C21.1559 14.0446 21.1336 15.4598 21.0889 16.2455C20.9997 18.1027 20.4461 19.5402 19.4282 20.558C18.4104 21.5759 16.9729 22.1295 15.1157 22.2187C14.33 22.2634 12.9148 22.2857 10.8702 22.2857C8.82554 22.2857 7.41037 22.2634 6.62465 22.2187C4.76751 22.1295 3.33001 21.5759 2.31215 20.558C1.29429 19.5402 0.740723 18.1027 0.651437 16.2455C0.606794 15.4598 0.584473 14.0446 0.584473 12C0.584473 9.95535 0.606794 8.54017 0.651437 7.75446C0.740723 5.89731 1.29429 4.45981 2.31215 3.44196C3.33001 2.4241 4.76751 1.87053 6.62465 1.78124C7.41037 1.7366 8.82554 1.71428 10.8702 1.71428C12.9148 1.71428 14.33 1.7366 15.1157 1.78124C16.9729 1.87053 18.4104 2.4241 19.4282 3.44196C20.4461 4.45981 20.9997 5.89731 21.0889 7.75446Z" fill="#EEF8FF"/>
</g>
<defs>
<clipPath id="clip0_12_483">
<rect width="20.58" height="24" fill="white" transform="matrix(1 0 0 -1 0.580078 24)"/>
</clipPath>
</defs>
</svg>
