<svg width="23" height="24" viewBox="0 0 23 24" fill="none" xmlns="http://www.w3.org/2000/svg">
<g clip-path="url(#clip0_12_486)">
<path d="M21.2746 5.46427C20.6764 6.33927 19.9532 7.0848 19.105 7.70088C19.1139 7.82588 19.1184 8.01338 19.1184 8.26338C19.1184 9.42409 18.9487 10.5826 18.6094 11.7388C18.2702 12.8951 17.7545 14.0044 17.0626 15.0669C16.3706 16.1294 15.5469 17.0692 14.5916 17.8861C13.6362 18.7031 12.4844 19.3549 11.1362 19.8415C9.78802 20.3281 8.34605 20.5714 6.81034 20.5714C4.39069 20.5714 2.17641 19.9241 0.16748 18.6294C0.47998 18.6652 0.828195 18.683 1.21212 18.683C3.22105 18.683 5.01123 18.0669 6.58266 16.8348C5.64516 16.8169 4.80587 16.529 4.0648 15.971C3.32373 15.4129 2.8148 14.7009 2.53802 13.8348C2.83266 13.8794 3.10498 13.9018 3.35498 13.9018C3.73891 13.9018 4.11837 13.8527 4.49337 13.7544C3.49337 13.5491 2.66525 13.0513 2.009 12.2611C1.35275 11.471 1.02462 10.5536 1.02462 9.50891V9.45534C1.63177 9.79463 2.28355 9.97766 2.97998 10.0044C2.39069 9.61159 1.92194 9.0982 1.57373 8.46427C1.22552 7.83034 1.05141 7.14284 1.05141 6.40177C1.05141 5.61605 1.24784 4.88838 1.64069 4.21873C2.72105 5.54909 4.03578 6.61382 5.58489 7.41293C7.134 8.21204 8.79248 8.65623 10.5603 8.74552C10.4889 8.40623 10.4532 8.07588 10.4532 7.75445C10.4532 6.55802 10.8751 5.53793 11.7188 4.69418C12.5626 3.85043 13.5827 3.42855 14.7791 3.42855C16.0291 3.42855 17.0827 3.88391 17.9398 4.79463C18.913 4.60713 19.8282 4.25891 20.6853 3.74998C20.355 4.77677 19.7211 5.57141 18.7836 6.13391C19.6139 6.04463 20.4443 5.82141 21.2746 5.46427Z" fill="#EEF8FF"/>
</g>
<defs>
<clipPath id="clip0_12_486">
<rect width="22.3" height="24" fill="white" transform="matrix(1 0 0 -1 0.160156 24)"/>
</clipPath>
</defs>
</svg>
