<svg width="49" height="56" viewBox="0 0 49 56" fill="none" xmlns="http://www.w3.org/2000/svg">
<mask id="mask0_1_225" style="mask-type:luminance" maskUnits="userSpaceOnUse" x="0" y="0" width="49" height="56">
<path d="M48.8631 0.505615H0.18457V55.269H48.8631V0.505615Z" fill="white"/>
</mask>
<g mask="url(#mask0_1_225)">
<path fill-rule="evenodd" clip-rule="evenodd" d="M34.4391 54.302L34.3166 7.37768C33.9994 7.06161 33.3807 7.15705 33.1388 7.22747L31.5278 7.72502C31.3289 7.07297 31.0708 6.44032 30.7568 5.83491C29.6136 3.66002 27.9429 2.50999 25.9204 2.50686H25.914C25.779 2.50686 25.6455 2.51938 25.5105 2.53033L25.4948 2.5319C25.4363 2.46011 25.3755 2.39019 25.3126 2.32223C24.4333 1.38343 23.3027 0.924983 21.9491 0.964099C19.3393 1.0392 16.7405 2.91994 14.6316 6.2605C13.1477 8.6122 12.0218 11.5647 11.6999 13.8507L6.5604 15.4389C5.04822 15.913 5.00111 15.9599 4.80169 17.3821C4.65251 18.4587 0.693848 48.9994 0.693848 48.9994L33.8706 54.7229L34.4391 54.3005V54.302ZM23.5696 3.10926C23.1284 2.8198 22.6117 2.68523 21.9994 2.69775C17.97 2.81354 14.4557 9.09255 13.5591 13.2765L17.4188 12.0842L18.1082 11.8714C18.6138 9.21459 19.8826 6.45765 21.5424 4.68332C22.1227 4.04752 22.8078 3.51518 23.568 3.10926H23.5696ZM20.0161 11.2816L25.556 9.56978C25.5733 8.13027 25.4163 6.00233 24.6939 4.50025C23.9245 4.81631 23.2776 5.3702 22.8128 5.86621C21.5675 7.20086 20.5516 9.23649 20.0176 11.2816H20.0161ZM27.2912 9.03466L29.8664 8.23824C29.4551 6.90514 28.4783 4.6708 26.4982 4.29528C27.1137 5.88029 27.2724 7.71564 27.2912 9.03466Z" fill="#95BF47"/>
<path d="M41.8727 10.8683C41.6749 10.8527 37.8403 10.7932 37.8403 10.7932C37.8403 10.7932 34.6322 7.68583 34.315 7.3682C34.1922 7.25527 34.0367 7.18404 33.8706 7.16479V54.7151L48.2466 51.1492C48.2466 51.1492 42.38 11.5771 42.3423 11.3064C42.3242 11.1915 42.2679 11.0859 42.1825 11.0065C42.0971 10.9271 41.9876 10.8785 41.8712 10.8683H41.8727Z" fill="#5E8E3E"/>
<path d="M25.9029 18.252L24.2321 24.4857C24.2321 24.4857 22.3697 23.6392 20.1603 23.7785C16.9225 23.9818 16.8879 26.0206 16.9209 26.5322C17.0967 29.3174 24.4472 29.9276 24.8601 36.457C25.1852 41.5937 22.1295 45.1096 17.7264 45.3849C12.4424 45.7183 9.53271 42.6077 9.53271 42.6077L10.6523 37.8542C10.6523 37.8542 13.5809 40.0588 15.9238 39.9102C17.4563 39.8147 18.0028 38.5723 17.9478 37.6931C17.717 34.0583 11.7311 34.2711 11.3527 28.2972C11.0354 23.2668 14.344 18.1738 21.6474 17.7138C24.4613 17.5354 25.9029 18.2536 25.9029 18.2536" fill="white"/>
</g>
</svg>
