<svg width="53" height="55" viewBox="0 0 53 55" fill="none" xmlns="http://www.w3.org/2000/svg">
<mask id="mask0_1_242" style="mask-type:luminance" maskUnits="userSpaceOnUse" x="0" y="0" width="53" height="55">
<path d="M52.6454 0.841431H0.634277V54.933H52.6454V0.841431Z" fill="white"/>
</mask>
<g mask="url(#mask0_1_242)">
<path fill-rule="evenodd" clip-rule="evenodd" d="M52.2563 12.8704C52.2755 12.9413 52.2852 13.0144 52.2854 13.0878V24.5012C52.2854 24.6477 52.2467 24.7915 52.1734 24.9183C52.1 25.045 51.9943 25.1502 51.8673 25.2231L42.2879 30.7383V41.67C42.2879 41.9675 42.1297 42.2421 41.8718 42.3919L21.8756 53.903C21.8298 53.929 21.7799 53.9457 21.7299 53.9634C21.7113 53.9696 21.6936 53.981 21.6738 53.9863C21.534 54.023 21.3871 54.023 21.2473 53.9863C21.2244 53.98 21.2036 53.9675 21.1818 53.9592C21.136 53.9425 21.0881 53.9279 21.0445 53.903L1.05245 42.3919C0.925439 42.319 0.819916 42.2138 0.746505 42.087C0.673086 41.9604 0.634377 41.8165 0.634277 41.67V7.43006C0.634277 7.35517 0.644679 7.28235 0.663403 7.21162C0.669644 7.18769 0.684209 7.16585 0.69253 7.14192C0.708136 7.09823 0.722695 7.0535 0.745585 7.01293C0.761182 6.98589 0.784071 6.96404 0.802796 6.93908C0.826722 6.90579 0.848566 6.87146 0.876649 6.84234C0.900575 6.81841 0.931777 6.80073 0.958823 6.77992C0.988997 6.75496 1.01604 6.72791 1.05036 6.70814H1.05141L11.0479 0.9526C11.1745 0.879764 11.3179 0.841431 11.464 0.841431C11.61 0.841431 11.7536 0.879764 11.8801 0.9526L21.8766 6.70814H21.8787C21.912 6.72895 21.9401 6.75496 21.9703 6.77889C21.9973 6.79968 22.0274 6.81841 22.0514 6.8413C22.0805 6.87146 22.1014 6.90579 22.1263 6.93908C22.144 6.96404 22.1679 6.98589 22.1825 7.01293C22.2064 7.05455 22.2199 7.09823 22.2366 7.14192C22.2449 7.16585 22.2595 7.18769 22.2657 7.21266C22.2848 7.28354 22.2946 7.35663 22.2948 7.43006V28.8159L30.6249 24.0196V13.0868C30.6249 13.014 30.6353 12.9401 30.654 12.8704C30.6613 12.8454 30.6749 12.8236 30.6832 12.7997C30.6998 12.756 30.7144 12.7113 30.7373 12.6707C30.7528 12.6437 30.7757 12.6218 30.7934 12.5969C30.8184 12.5635 30.8392 12.5293 30.8683 12.5001C30.8922 12.4762 30.9224 12.4585 30.9495 12.4377C30.9807 12.4127 31.0077 12.3856 31.041 12.3659H31.0421L41.0396 6.61036C41.1662 6.53743 41.3096 6.49903 41.4557 6.49903C41.6017 6.49903 41.7452 6.53743 41.8718 6.61036L51.8683 12.3659C51.9037 12.3867 51.9308 12.4127 51.962 12.4367C51.9879 12.4575 52.0181 12.4762 52.042 12.4991C52.0711 12.5293 52.092 12.5635 52.1169 12.5969C52.1357 12.6218 52.1586 12.6437 52.1731 12.6707C52.1971 12.7113 52.2106 12.756 52.2272 12.7997C52.2366 12.8236 52.2501 12.8454 52.2563 12.8704ZM50.619 24.0196V14.5286L47.1208 16.5424L42.2879 19.325V28.8159L50.62 24.0196H50.619ZM40.6225 41.1884V31.6912L35.8686 34.4061L22.2937 42.1537V51.7404L40.6225 41.1884ZM2.30072 8.87077V41.1884L20.6274 51.7394V42.1547L11.0532 36.7362L11.05 36.7341L11.0459 36.7321C11.0136 36.7133 10.9865 36.6863 10.9564 36.6635C10.9304 36.6426 10.9003 36.6259 10.8774 36.6031L10.8753 36.6C10.8483 36.5739 10.8295 36.5417 10.8066 36.5125C10.7858 36.4845 10.7608 36.4606 10.7442 36.4314L10.7431 36.4283C10.7245 36.3971 10.713 36.3596 10.6995 36.3243C10.686 36.2931 10.6682 36.264 10.6599 36.2307V36.2296C10.6496 36.1902 10.6475 36.1485 10.6433 36.1079C10.6391 36.0767 10.6308 36.0455 10.6308 36.0144V36.0122V13.6673L5.79898 10.8836L2.30072 8.87181V8.87077ZM11.4651 2.63568L3.13601 7.43006L11.463 12.2245L19.791 7.42902L11.463 2.63568H11.4651ZM15.7965 32.5566L20.6284 29.7751V8.87077L17.1301 10.8846L12.2973 13.6673V34.5716L15.7965 32.5566ZM41.4557 8.29345L33.1276 13.0878L41.4557 17.8822L49.7827 13.0868L41.4557 8.29345ZM40.6225 19.325L35.7896 16.5424L32.2913 14.5286V24.0196L37.1232 26.801L40.6225 28.8159V19.325ZM21.4595 40.713L33.6749 33.7394L39.7809 30.2546L31.4592 25.4634L21.8777 30.9796L13.1451 36.0071L21.4595 40.713Z" fill="#FF2D20"/>
</g>
</svg>
