<svg width="39" height="39" viewBox="0 0 39 39" fill="none" xmlns="http://www.w3.org/2000/svg">
<path d="M19.5 0C8.76029 0 0 8.76217 0 19.5C0 30.2377 8.76029 38.9999 19.5 38.9999C30.2397 38.9999 39 30.2377 39 19.5C39 8.76217 30.2397 0 19.5 0ZM19.5 5.19839C27.4266 5.19839 33.7984 11.5697 33.7984 19.5C33.7984 27.4302 27.4266 33.8015 19.5 33.8015C11.5734 33.8015 5.20153 27.4302 5.20153 19.5C5.20153 11.5697 11.5734 5.19839 19.5 5.19839Z" fill="#FF0000"/>
<path d="M26.6485 9.75146C26.307 9.75156 25.9688 9.81889 25.6533 9.9496C25.3378 10.0803 25.0511 10.2719 24.8097 10.5133L10.5112 24.8121C10.2698 25.0535 10.0783 25.3401 9.94766 25.6555C9.81705 25.9709 9.74989 26.309 9.75 26.6503C9.75011 26.9916 9.8175 27.3296 9.94831 27.6449C10.0791 27.9603 10.2708 28.2467 10.5124 28.488C11.0003 28.9753 11.6619 29.2489 12.3517 29.2487C13.0414 29.2485 13.7029 28.9744 14.1904 28.4868L28.4889 14.188C28.7304 13.9466 28.9219 13.66 29.0525 13.3446C29.1831 13.0292 29.2502 12.6912 29.2501 12.3498C29.25 12.0085 29.1826 11.6705 29.0518 11.3552C28.921 11.0398 28.7293 10.7534 28.4877 10.5121C27.9998 10.0248 27.3382 9.75124 26.6485 9.75146Z" fill="#FF0000"/>
<path d="M12.3517 9.75147C12.0102 9.75134 11.672 9.81844 11.3564 9.94895C11.0408 10.0795 10.754 10.2708 10.5124 10.5121C10.2708 10.7534 10.0791 11.0398 9.94831 11.3552C9.8175 11.6705 9.75011 12.0085 9.75 12.3498C9.74989 12.6912 9.81705 13.0292 9.94766 13.3446C10.0783 13.66 10.2698 13.9466 10.5112 14.188L24.8097 28.4868C25.2972 28.9744 25.9587 29.2485 26.6484 29.2487C27.3382 29.2489 27.9998 28.9753 28.4877 28.488C28.7293 28.2467 28.921 27.9603 29.0518 27.6449C29.1826 27.3296 29.25 26.9916 29.2501 26.6503C29.2502 26.3089 29.1831 25.9709 29.0525 25.6555C28.9219 25.3401 28.7304 25.0535 28.4889 24.8121L14.1904 10.5133C13.7029 10.0257 13.0415 9.75169 12.3517 9.75147Z" fill="#FF0000"/>
</svg>
