<svg width="81" height="81" viewBox="0 0 81 81" fill="none" xmlns="http://www.w3.org/2000/svg">
<path d="M10.125 30.375H70.875M23.625 50.625H30.375M20.925 64.125H60.075C63.8553 64.125 65.7457 64.125 67.1895 63.3892C68.4595 62.7423 69.4923 61.7095 70.1392 60.4395C70.875 58.9957 70.875 57.1053 70.875 53.325V27.675C70.875 23.8947 70.875 22.0045 70.1392 20.5606C69.4923 19.2905 68.4595 18.2578 67.1895 17.6107C65.7457 16.875 63.8553 16.875 60.075 16.875H20.925C17.1447 16.875 15.2545 16.875 13.8106 17.6107C12.5405 18.2578 11.5078 19.2905 10.8607 20.5606C10.125 22.0045 10.125 23.8946 10.125 27.675V53.325C10.125 57.1053 10.125 58.9957 10.8607 60.4395C11.5078 61.7095 12.5405 62.7423 13.8106 63.3892C15.2545 64.125 17.1446 64.125 20.925 64.125Z" stroke="black" stroke-width="2.5" stroke-linecap="round" stroke-linejoin="round"/>
</svg>
