<svg width="60" height="60" viewBox="0 0 60 60" fill="none" xmlns="http://www.w3.org/2000/svg">
<rect width="60" height="60" rx="30" fill="#1C5178"/>
<path d="M25.625 27.875V19.75C25.625 17.0576 27.8075 14.875 30.5 14.875C33.1925 14.875 35.375 17.0576 35.375 19.75V27.8219M27.9 44.125H33.1C36.7403 44.125 38.5605 44.125 39.951 43.4165C41.174 42.7933 42.1683 41.799 42.7915 40.576C43.5 39.1855 43.5 37.3653 43.5 33.725V29.825C43.5 28.0048 43.5 27.0947 43.1457 26.3995C42.8342 25.788 42.337 25.2908 41.7255 24.9792C41.0303 24.625 40.1202 24.625 38.3 24.625H22.7C20.8798 24.625 19.9697 24.625 19.2745 24.9792C18.663 25.2908 18.1658 25.788 17.8542 26.3995C17.5 27.0947 17.5 28.0048 17.5 29.825V33.725C17.5 37.3653 17.5 39.1855 18.2085 40.576C18.8316 41.799 19.826 42.7933 21.0491 43.4165C22.4395 44.125 24.2597 44.125 27.9 44.125Z" stroke="white" stroke-width="2.5" stroke-linecap="round" stroke-linejoin="round"/>
</svg>
