<svg width="60" height="60" viewBox="0 0 60 60" fill="none" xmlns="http://www.w3.org/2000/svg">
<rect width="60" height="60" rx="30" fill="#1C5178"/>
<path fill-rule="evenodd" clip-rule="evenodd" d="M30.5 22.7504C27.576 19.3427 22.6899 18.2896 19.0262 21.41C15.3626 24.5304 14.8468 29.7475 17.7239 33.438C20.116 36.5064 27.3553 42.9779 29.728 45.0726C29.9933 45.3069 30.1261 45.424 30.2809 45.47C30.416 45.5102 30.5639 45.5102 30.6991 45.47C30.8539 45.424 30.9865 45.3069 31.252 45.0726C33.6247 42.9779 40.8639 36.5064 43.2561 33.438C46.1331 29.7475 45.6803 24.4976 41.9536 21.41C38.227 18.3225 33.424 19.3427 30.5 22.7504Z" fill="white" stroke="white" stroke-width="2.5" stroke-linecap="round" stroke-linejoin="round"/>
</svg>
