<svg width="13" height="11" viewBox="0 0 13 11" fill="none" xmlns="http://www.w3.org/2000/svg">
<path fill-rule="evenodd" clip-rule="evenodd" d="M0.94043 5.25012C0.94043 5.06071 1.01944 4.87907 1.16008 4.74514C1.30071 4.6112 1.49146 4.53596 1.69035 4.53596H10.3789L7.15874 1.4708C7.01792 1.3367 6.93881 1.15482 6.93881 0.965182C6.93881 0.775532 7.01792 0.593662 7.15874 0.459558C7.29955 0.325459 7.49053 0.250122 7.68968 0.250122C7.88882 0.250122 8.0798 0.325459 8.22062 0.459558L12.7201 4.7445C12.7899 4.81084 12.8453 4.88964 12.8831 4.97641C12.9209 5.06317 12.9404 5.15618 12.9404 5.25012C12.9404 5.34406 12.9209 5.43707 12.8831 5.52383C12.8453 5.6106 12.7899 5.6894 12.7201 5.75574L8.22062 10.0407C8.0798 10.1748 7.88882 10.2501 7.68968 10.2501C7.49053 10.2501 7.29955 10.1748 7.15874 10.0407C7.01792 9.90662 6.93881 9.72472 6.93881 9.53502C6.93881 9.34542 7.01792 9.16354 7.15874 9.02944L10.3789 5.96428H1.69035C1.49146 5.96428 1.30071 5.88904 1.16008 5.75511C1.01944 5.62118 0.94043 5.43953 0.94043 5.25012Z" fill="#23A6F0"/>
</svg>
